<svg version="1.1" xmlns="http://www.w3.org/2000/svg" viewBox="0 0 1162.75 556" width="3488.25" height="1668">
  <!-- svg-source:excalidraw -->
  
  <defs>
    <style class="style-fonts">
      @font-face {
        font-family: "Virgil";
        src: url("https://excalidraw.com/Virgil.woff2");
      }
      @font-face {
        font-family: "Cascadia";
        src: url("https://excalidraw.com/Cascadia.woff2");
      }
    </style>
  </defs>
  <g transform="translate(10 223.875) rotate(0 95.61666870117188 12.5)"><text x="0" y="0" font-family="Virgil, Segoe UI Emoji" font-size="20px" fill="#1e1e1e" text-anchor="start" style="white-space: pre;" direction="ltr" dominant-baseline="text-before-edge">numero_rebotes.csv</text></g><g transform="translate(10 265.5) rotate(0 61.88333511352539 12.5)"><text x="0" y="0" font-family="Virgil, Segoe UI Emoji" font-size="20px" fill="#1e1e1e" text-anchor="start" style="white-space: pre;" direction="ltr" dominant-baseline="text-before-edge">ucs_real.csv</text></g><g transform="translate(10 307.125) rotate(0 69.875 12.5)"><text x="0" y="0" font-family="Virgil, Segoe UI Emoji" font-size="20px" fill="#1e1e1e" text-anchor="start" style="white-space: pre;" direction="ltr" dominant-baseline="text-before-edge">ucs_aprox.csv</text></g><g stroke-linecap="round" transform="translate(346.7026544418186 10) rotate(0 262.5 268)"><path d="M32 0 M32 0 C192.62 2.19, 352.82 2.52, 493 0 M32 0 C148.63 -1.05, 266.27 -0.68, 493 0 M493 0 C515.05 1.17, 527 11.76, 525 32 M493 0 C513.96 1.38, 524.59 11.23, 525 32 M525 32 C523.12 132.49, 523.57 231.98, 525 504 M525 32 C523.12 127.13, 522.67 222.91, 525 504 M525 504 C526.82 526.24, 512.76 534.9, 493 536 M525 504 C524.18 527.18, 513.1 534.95, 493 536 M493 536 C311.02 537.71, 128.66 537.69, 32 536 M493 536 C321.93 534.94, 150.72 534.58, 32 536 M32 536 C11.16 536.05, -0.1 527.02, 0 504 M32 536 C12.72 536.88, 1.36 525.92, 0 504 M0 504 C-1.16 391.09, -1.71 277.8, 0 32 M0 504 C-1.01 327.06, -0.76 149.67, 0 32 M0 32 C1.06 11.37, 8.7 -1.54, 32 0 M0 32 C0.8 12.89, 11.24 1.91, 32 0" stroke="#1e1e1e" stroke-width="1" fill="none"></path></g><g stroke-linecap="round" transform="translate(395.7026544418186 213) rotate(0 218.5 130)"><path d="M-0.26 0.85 C91.86 -2.26, 183.06 -1.45, 436.02 -0.27 M-0.14 -0.41 C104.3 1.15, 207.62 1.31, 436.82 -0.41 M435.75 -0.06 C435.7 83.09, 436.4 165.4, 438.13 260.8 M437.41 -0.61 C435.87 87.56, 435.97 174.23, 437.12 260.09 M437.87 260.06 C312.7 259.04, 187.69 258.15, -0.02 260.1 M436.75 259.62 C345.72 260.63, 254.27 260.69, -0.1 259.52 M1.13 259.13 C0.47 171.42, 0.56 79.25, -1.14 1.11 M-0.03 259.42 C0.65 194.41, 0.09 129.49, -0.51 0.61" stroke="#1e1e1e" stroke-width="1" fill="none"></path></g><g stroke-linecap="round" transform="translate(393.7026544418186 43) rotate(0 219.5 17.5)"><path d="M-0.9 -0.52 L440.18 1.7 L441 33.13 L0.89 33.21" stroke="none" stroke-width="0" fill="#fff9db"></path><path d="M-0.56 0.34 C145.52 0.19, 289.9 1.12, 439.8 -0.96 M0.26 -0.49 C166.12 -2.32, 332.26 -1.66, 438.89 0.5 M439.71 0.88 C438.84 12.08, 440.1 23.82, 437.83 33.05 M438.14 0.4 C439.74 8.22, 440.09 16.87, 439.82 34.73 M438.2 35.09 C330.69 34.14, 223.98 34.03, -0.79 34.02 M438.72 35.46 C266.29 35.1, 93.32 35.19, -0.34 35.29 M-0.67 34.25 C1.18 24.07, 1.75 9.25, 1.78 1.32 M-0.99 35.09 C-0.26 21.46, -0.1 8.66, -0.53 -0.3" stroke="#1e1e1e" stroke-width="1" fill="none"></path></g><g transform="translate(516.8776574935764 48) rotate(0 96.32499694824219 12.5)"><text x="96.32499694824219" y="0" font-family="Virgil, Segoe UI Emoji" font-size="20px" fill="#1e1e1e" text-anchor="middle" style="white-space: pre;" direction="ltr" dominant-baseline="text-before-edge">nombre del proyecto</text></g><g stroke-linecap="round"><g transform="translate(475.6188986829063 456.01601273534425) rotate(11.52960253016839 132.4379858083854 -103.78577236100281)"><path d="M-0.84 -0.9 C55.02 -41.18, 108.99 -83.88, 265.62 -207.24 M0.08 0.16 C84.45 -66.54, 167.89 -132.61, 265.72 -207.73" stroke="#e03131" stroke-width="1" fill="none"></path></g></g><mask></mask><g transform="translate(520.3918660738906 403.98445945582694) rotate(11.52960253016839 0.00004444238356882124 0.00004444238356882124)" stroke="none"><path fill="#2f9e44" d="M 1.57,-1.57 Q 1.57,-1.57 1.77,-1.27 1.98,-0.98 2.09,-0.64 2.20,-0.29 2.19,0.05 2.18,0.41 2.05,0.75 1.93,1.09 1.70,1.37 1.48,1.65 1.18,1.84 0.87,2.04 0.52,2.12 0.18,2.21 -0.17,2.18 -0.53,2.15 -0.86,2.01 -1.19,1.87 -1.46,1.63 -1.73,1.39 -1.90,1.07 -2.08,0.76 -2.15,0.41 -2.21,0.05 -2.17,-0.29 -2.12,-0.65 -1.96,-0.97 -1.80,-1.29 -1.54,-1.54 -1.29,-1.80 -0.97,-1.96 -0.65,-2.12 -0.29,-2.17 0.06,-2.21 0.41,-2.15 0.76,-2.08 1.07,-1.90 1.39,-1.73 1.63,-1.46 1.87,-1.19 2.01,-0.86 2.15,-0.53 2.18,-0.17 2.21,0.18 2.12,0.52 2.03,0.87 1.84,1.18 1.65,1.48 1.37,1.70 1.09,1.93 0.75,2.05 0.41,2.18 0.05,2.19 -0.30,2.20 -0.64,2.09 -0.98,1.98 -1.27,1.77 -1.57,1.56 -1.57,1.57 -1.57,1.57 -1.73,1.35 -1.90,1.14 -2.01,0.90 -2.12,0.66 -2.16,0.39 -2.21,0.13 -2.20,-0.13 -2.18,-0.40 -2.10,-0.65 -2.02,-0.91 -1.88,-1.14 -1.74,-1.36 -1.55,-1.55 -1.36,-1.74 -1.14,-1.88 -0.91,-2.02 -0.65,-2.10 -0.40,-2.18 -0.13,-2.20 0.13,-2.21 0.39,-2.16 0.66,-2.12 0.90,-2.01 1.14,-1.90 1.35,-1.73 1.57,-1.57 1.57,-1.57 L 1.57,-1.57 Z"></path></g><g transform="translate(540.366822287154 377.2159708372932) rotate(11.52960253016839 0.00004444238356882124 0.00004444238356882124)" stroke="none"><path fill="#2f9e44" d="M 1.57,-1.57 Q 1.57,-1.57 1.77,-1.27 1.98,-0.98 2.09,-0.64 2.20,-0.29 2.19,0.05 2.18,0.41 2.05,0.75 1.93,1.09 1.70,1.37 1.48,1.65 1.18,1.84 0.87,2.04 0.52,2.12 0.18,2.21 -0.17,2.18 -0.53,2.15 -0.86,2.01 -1.19,1.87 -1.46,1.63 -1.73,1.39 -1.90,1.07 -2.08,0.76 -2.15,0.41 -2.21,0.05 -2.17,-0.29 -2.12,-0.65 -1.96,-0.97 -1.80,-1.29 -1.54,-1.54 -1.29,-1.80 -0.97,-1.96 -0.65,-2.12 -0.29,-2.17 0.06,-2.21 0.41,-2.15 0.76,-2.08 1.07,-1.90 1.39,-1.73 1.63,-1.46 1.87,-1.19 2.01,-0.86 2.15,-0.53 2.18,-0.17 2.21,0.18 2.12,0.52 2.03,0.87 1.84,1.18 1.65,1.48 1.37,1.70 1.09,1.93 0.75,2.05 0.41,2.18 0.05,2.19 -0.30,2.20 -0.64,2.09 -0.98,1.98 -1.27,1.77 -1.57,1.56 -1.57,1.57 -1.57,1.57 -1.73,1.35 -1.90,1.14 -2.01,0.90 -2.12,0.66 -2.16,0.39 -2.21,0.13 -2.20,-0.13 -2.18,-0.40 -2.10,-0.65 -2.02,-0.91 -1.88,-1.14 -1.74,-1.36 -1.55,-1.55 -1.36,-1.74 -1.14,-1.88 -0.91,-2.02 -0.65,-2.10 -0.40,-2.18 -0.13,-2.20 0.13,-2.21 0.39,-2.16 0.66,-2.12 0.90,-2.01 1.14,-1.90 1.35,-1.73 1.57,-1.57 1.57,-1.57 L 1.57,-1.57 Z"></path></g><g transform="translate(550.2405245705639 385.87044899919124) rotate(11.52960253016839 1.3332715072867245 0.8888476715244735)" stroke="none"><path fill="#2f9e44" d="M 2.12,-0.66 Q 2.12,-0.66 2.15,-0.13 2.18,0.40 1.96,0.88 1.74,1.36 1.32,1.69 0.91,2.02 0.38,2.12 -0.13,2.21 -0.64,2.05 -1.14,1.90 -1.52,1.52 -1.90,1.14 -2.05,0.64 -2.21,0.13 -2.12,-0.38 -2.02,-0.91 -1.69,-1.32 -1.36,-1.74 -0.88,-1.96 -0.39,-2.18 0.13,-2.15 0.66,-2.11 1.11,-1.84 1.57,-1.56 1.84,-1.11 L 2.12,-0.66 Z"></path></g><g transform="translate(571.7891644013501 365.4827753263113) rotate(11.52960253016839 0.00004444238356882124 0.00004444238356882124)" stroke="none"><path fill="#2f9e44" d="M 1.57,-1.57 Q 1.57,-1.57 1.77,-1.27 1.98,-0.98 2.09,-0.64 2.20,-0.29 2.19,0.05 2.18,0.41 2.05,0.75 1.93,1.09 1.70,1.37 1.48,1.65 1.18,1.84 0.87,2.04 0.52,2.12 0.18,2.21 -0.17,2.18 -0.53,2.15 -0.86,2.01 -1.19,1.87 -1.46,1.63 -1.73,1.39 -1.90,1.07 -2.08,0.76 -2.15,0.41 -2.21,0.05 -2.17,-0.29 -2.12,-0.65 -1.96,-0.97 -1.80,-1.29 -1.54,-1.54 -1.29,-1.80 -0.97,-1.96 -0.65,-2.12 -0.29,-2.17 0.06,-2.21 0.41,-2.15 0.76,-2.08 1.07,-1.90 1.39,-1.73 1.63,-1.46 1.87,-1.19 2.01,-0.86 2.15,-0.53 2.18,-0.17 2.21,0.18 2.12,0.52 2.03,0.87 1.84,1.18 1.65,1.48 1.37,1.70 1.09,1.93 0.75,2.05 0.41,2.18 0.05,2.19 -0.30,2.20 -0.64,2.09 -0.98,1.98 -1.27,1.77 -1.57,1.56 -1.57,1.57 -1.57,1.57 -1.73,1.35 -1.90,1.14 -2.01,0.90 -2.12,0.66 -2.16,0.39 -2.21,0.13 -2.20,-0.13 -2.18,-0.40 -2.10,-0.65 -2.02,-0.91 -1.88,-1.14 -1.74,-1.36 -1.55,-1.55 -1.36,-1.74 -1.14,-1.88 -0.91,-2.02 -0.65,-2.10 -0.40,-2.18 -0.13,-2.20 0.13,-2.21 0.39,-2.16 0.66,-2.12 0.90,-2.01 1.14,-1.90 1.35,-1.73 1.57,-1.57 1.57,-1.57 L 1.57,-1.57 Z"></path></g><g transform="translate(587.3851721496676 365.1170966488495) rotate(11.52960253016839 0.44442383576222255 -0.444423835762251)" stroke="none"><path fill="#2f9e44" d="M 2.12,-0.66 Q 2.12,-0.66 2.15,-0.13 2.18,0.40 1.96,0.88 1.74,1.36 1.32,1.69 0.91,2.02 0.38,2.12 -0.13,2.21 -0.64,2.05 -1.14,1.90 -1.52,1.52 -1.90,1.14 -2.05,0.64 -2.21,0.13 -2.12,-0.38 -2.02,-0.91 -1.69,-1.32 -1.36,-1.74 -0.88,-1.96 -0.39,-2.18 0.13,-2.15 0.66,-2.11 1.11,-1.84 1.57,-1.56 1.84,-1.11 L 2.12,-0.66 Z"></path></g><g transform="translate(600.696017473541 348.7821770069289) rotate(11.52960253016839 0.44442383576222255 -0.444423835762251)" stroke="none"><path fill="#2f9e44" d="M 2.12,-0.66 Q 2.12,-0.66 2.15,-0.13 2.18,0.40 1.96,0.88 1.74,1.36 1.32,1.69 0.91,2.02 0.38,2.12 -0.13,2.21 -0.64,2.05 -1.14,1.90 -1.52,1.52 -1.90,1.14 -2.05,0.64 -2.21,0.13 -2.12,-0.38 -2.02,-0.91 -1.69,-1.32 -1.36,-1.74 -0.88,-1.96 -0.39,-2.18 0.13,-2.15 0.66,-2.11 1.11,-1.84 1.57,-1.56 1.84,-1.11 L 2.12,-0.66 Z"></path></g><g transform="translate(623.7749090861565 350.8684023161999) rotate(11.52960253016839 0.888847671524502 0)" stroke="none"><path fill="#2f9e44" d="M 2.12,-0.66 Q 2.12,-0.66 2.15,-0.13 2.18,0.40 1.96,0.88 1.74,1.36 1.32,1.69 0.91,2.02 0.38,2.12 -0.13,2.21 -0.64,2.05 -1.14,1.90 -1.52,1.52 -1.90,1.14 -2.05,0.64 -2.21,0.13 -2.12,-0.38 -2.02,-0.91 -1.69,-1.32 -1.36,-1.74 -0.88,-1.96 -0.39,-2.18 0.13,-2.15 0.66,-2.11 1.11,-1.84 1.57,-1.56 1.84,-1.11 L 2.12,-0.66 Z"></path></g><g transform="translate(633.6026552505161 338.177420397494) rotate(11.52960253016839 0.00004444238356882124 0.00004444238356882124)" stroke="none"><path fill="#2f9e44" d="M 1.57,-1.57 Q 1.57,-1.57 1.77,-1.27 1.98,-0.98 2.09,-0.64 2.20,-0.29 2.19,0.05 2.18,0.41 2.05,0.75 1.93,1.09 1.70,1.37 1.48,1.65 1.18,1.84 0.87,2.04 0.52,2.12 0.18,2.21 -0.17,2.18 -0.53,2.15 -0.86,2.01 -1.19,1.87 -1.46,1.63 -1.73,1.39 -1.90,1.07 -2.08,0.76 -2.15,0.41 -2.21,0.05 -2.17,-0.29 -2.12,-0.65 -1.96,-0.97 -1.80,-1.29 -1.54,-1.54 -1.29,-1.80 -0.97,-1.96 -0.65,-2.12 -0.29,-2.17 0.06,-2.21 0.41,-2.15 0.76,-2.08 1.07,-1.90 1.39,-1.73 1.63,-1.46 1.87,-1.19 2.01,-0.86 2.15,-0.53 2.18,-0.17 2.21,0.18 2.12,0.52 2.03,0.87 1.84,1.18 1.65,1.48 1.37,1.70 1.09,1.93 0.75,2.05 0.41,2.18 0.05,2.19 -0.30,2.20 -0.64,2.09 -0.98,1.98 -1.27,1.77 -1.57,1.56 -1.57,1.57 -1.57,1.57 -1.73,1.35 -1.90,1.14 -2.01,0.90 -2.12,0.66 -2.16,0.39 -2.21,0.13 -2.20,-0.13 -2.18,-0.40 -2.10,-0.65 -2.02,-0.91 -1.88,-1.14 -1.74,-1.36 -1.55,-1.55 -1.36,-1.74 -1.14,-1.88 -0.91,-2.02 -0.65,-2.10 -0.40,-2.18 -0.13,-2.20 0.13,-2.21 0.39,-2.16 0.66,-2.12 0.90,-2.01 1.14,-1.90 1.35,-1.73 1.57,-1.57 1.57,-1.57 L 1.57,-1.57 Z"></path></g><g transform="translate(641.2085813440522 328.1081266405681) rotate(11.52960253016839 0.888847671524502 -0.444423835762251)" stroke="none"><path fill="#2f9e44" d="M 2.12,-0.66 Q 2.12,-0.66 2.15,-0.13 2.18,0.40 1.96,0.88 1.74,1.36 1.32,1.69 0.91,2.02 0.38,2.12 -0.13,2.21 -0.64,2.05 -1.14,1.90 -1.52,1.52 -1.90,1.14 -2.05,0.64 -2.21,0.13 -2.12,-0.38 -2.02,-0.91 -1.69,-1.32 -1.36,-1.74 -0.88,-1.96 -0.39,-2.18 0.13,-2.15 0.66,-2.11 1.11,-1.84 1.57,-1.56 1.84,-1.11 L 2.12,-0.66 Z"></path></g><g transform="translate(656.1292604604846 325.62738072871554) rotate(11.52960253016839 0.44442383576222255 0)" stroke="none"><path fill="#2f9e44" d="M 2.12,-0.66 Q 2.12,-0.66 2.15,-0.13 2.18,0.40 1.96,0.88 1.74,1.36 1.32,1.69 0.91,2.02 0.38,2.12 -0.13,2.21 -0.64,2.05 -1.14,1.90 -1.52,1.52 -1.90,1.14 -2.05,0.64 -2.21,0.13 -2.12,-0.38 -2.02,-0.91 -1.69,-1.32 -1.36,-1.74 -0.88,-1.96 -0.39,-2.18 0.13,-2.15 0.66,-2.11 1.11,-1.84 1.57,-1.56 1.84,-1.11 L 2.12,-0.66 Z"></path></g><g transform="translate(668.1443724157537 328.9855008557724) rotate(11.52960253016839 0.44442383576222255 0)" stroke="none"><path fill="#2f9e44" d="M 2.12,-0.66 Q 2.12,-0.66 2.15,-0.13 2.18,0.40 1.96,0.88 1.74,1.36 1.32,1.69 0.91,2.02 0.38,2.12 -0.13,2.21 -0.64,2.05 -1.14,1.90 -1.52,1.52 -1.90,1.14 -2.05,0.64 -2.21,0.13 -2.12,-0.38 -2.02,-0.91 -1.69,-1.32 -1.36,-1.74 -0.88,-1.96 -0.39,-2.18 0.13,-2.15 0.66,-2.11 1.11,-1.84 1.57,-1.56 1.84,-1.11 L 2.12,-0.66 Z"></path></g><g transform="translate(675.2700040471523 312.2868571053793) rotate(11.52960253016839 0.44442383576222255 -0.444423835762251)" stroke="none"><path fill="#2f9e44" d="M 2.12,-0.66 Q 2.12,-0.66 2.15,-0.13 2.18,0.40 1.96,0.88 1.74,1.36 1.32,1.69 0.91,2.02 0.38,2.12 -0.13,2.21 -0.64,2.05 -1.14,1.90 -1.52,1.52 -1.90,1.14 -2.05,0.64 -2.21,0.13 -2.12,-0.38 -2.02,-0.91 -1.69,-1.32 -1.36,-1.74 -0.88,-1.96 -0.39,-2.18 0.13,-2.15 0.66,-2.11 1.11,-1.84 1.57,-1.56 1.84,-1.11 L 2.12,-0.66 Z"></path></g><g transform="translate(699.7707066961493 311.76035404287774) rotate(11.52960253016839 0.00004444238356882124 0.00004444238356882124)" stroke="none"><path fill="#2f9e44" d="M 1.57,-1.57 Q 1.57,-1.57 1.77,-1.27 1.98,-0.98 2.09,-0.64 2.20,-0.29 2.19,0.05 2.18,0.41 2.05,0.75 1.93,1.09 1.70,1.37 1.48,1.65 1.18,1.84 0.87,2.04 0.52,2.12 0.18,2.21 -0.17,2.18 -0.53,2.15 -0.86,2.01 -1.19,1.87 -1.46,1.63 -1.73,1.39 -1.90,1.07 -2.08,0.76 -2.15,0.41 -2.21,0.05 -2.17,-0.29 -2.12,-0.65 -1.96,-0.97 -1.80,-1.29 -1.54,-1.54 -1.29,-1.80 -0.97,-1.96 -0.65,-2.12 -0.29,-2.17 0.06,-2.21 0.41,-2.15 0.76,-2.08 1.07,-1.90 1.39,-1.73 1.63,-1.46 1.87,-1.19 2.01,-0.86 2.15,-0.53 2.18,-0.17 2.21,0.18 2.12,0.52 2.03,0.87 1.84,1.18 1.65,1.48 1.37,1.70 1.09,1.93 0.75,2.05 0.41,2.18 0.05,2.19 -0.30,2.20 -0.64,2.09 -0.98,1.98 -1.27,1.77 -1.57,1.56 -1.57,1.57 -1.57,1.57 -1.73,1.35 -1.90,1.14 -2.01,0.90 -2.12,0.66 -2.16,0.39 -2.21,0.13 -2.20,-0.13 -2.18,-0.40 -2.10,-0.65 -2.02,-0.91 -1.88,-1.14 -1.74,-1.36 -1.55,-1.55 -1.36,-1.74 -1.14,-1.88 -0.91,-2.02 -0.65,-2.10 -0.40,-2.18 -0.13,-2.20 0.13,-2.21 0.39,-2.16 0.66,-2.12 0.90,-2.01 1.14,-1.90 1.35,-1.73 1.57,-1.57 1.57,-1.57 L 1.57,-1.57 Z"></path></g><g transform="translate(708.1940182790349 297.14988218463657) rotate(11.52960253016839 0.00004444238356882124 0.00004444238356882124)" stroke="none"><path fill="#2f9e44" d="M 1.57,-1.57 Q 1.57,-1.57 1.77,-1.27 1.98,-0.98 2.09,-0.64 2.20,-0.29 2.19,0.05 2.18,0.41 2.05,0.75 1.93,1.09 1.70,1.37 1.48,1.65 1.18,1.84 0.87,2.04 0.52,2.12 0.18,2.21 -0.17,2.18 -0.53,2.15 -0.86,2.01 -1.19,1.87 -1.46,1.63 -1.73,1.39 -1.90,1.07 -2.08,0.76 -2.15,0.41 -2.21,0.05 -2.17,-0.29 -2.12,-0.65 -1.96,-0.97 -1.80,-1.29 -1.54,-1.54 -1.29,-1.80 -0.97,-1.96 -0.65,-2.12 -0.29,-2.17 0.06,-2.21 0.41,-2.15 0.76,-2.08 1.07,-1.90 1.39,-1.73 1.63,-1.46 1.87,-1.19 2.01,-0.86 2.15,-0.53 2.18,-0.17 2.21,0.18 2.12,0.52 2.03,0.87 1.84,1.18 1.65,1.48 1.37,1.70 1.09,1.93 0.75,2.05 0.41,2.18 0.05,2.19 -0.30,2.20 -0.64,2.09 -0.98,1.98 -1.27,1.77 -1.57,1.56 -1.57,1.57 -1.57,1.57 -1.73,1.35 -1.90,1.14 -2.01,0.90 -2.12,0.66 -2.16,0.39 -2.21,0.13 -2.20,-0.13 -2.18,-0.40 -2.10,-0.65 -2.02,-0.91 -1.88,-1.14 -1.74,-1.36 -1.55,-1.55 -1.36,-1.74 -1.14,-1.88 -0.91,-2.02 -0.65,-2.10 -0.40,-2.18 -0.13,-2.20 0.13,-2.21 0.39,-2.16 0.66,-2.12 0.90,-2.01 1.14,-1.90 1.35,-1.73 1.57,-1.57 1.57,-1.57 L 1.57,-1.57 Z"></path></g><g transform="translate(727.0071879322666 298.35677870971347) rotate(11.52960253016839 0.44442383576222255 0)" stroke="none"><path fill="#2f9e44" d="M 2.12,-0.66 Q 2.12,-0.66 2.15,-0.13 2.18,0.40 1.96,0.88 1.74,1.36 1.32,1.69 0.91,2.02 0.38,2.12 -0.13,2.21 -0.64,2.05 -1.14,1.90 -1.52,1.52 -1.90,1.14 -2.05,0.64 -2.21,0.13 -2.12,-0.38 -2.02,-0.91 -1.69,-1.32 -1.36,-1.74 -0.88,-1.96 -0.39,-2.18 0.13,-2.15 0.66,-2.11 1.11,-1.84 1.57,-1.56 1.84,-1.11 L 2.12,-0.66 Z"></path></g><g transform="translate(733.5199755581766 284.17308266977335) rotate(11.52960253016839 0.00004444238356882124 0.00004444238356882124)" stroke="none"><path fill="#2f9e44" d="M 1.57,-1.57 Q 1.57,-1.57 1.77,-1.27 1.98,-0.98 2.09,-0.64 2.20,-0.29 2.19,0.05 2.18,0.41 2.05,0.75 1.93,1.09 1.70,1.37 1.48,1.65 1.18,1.84 0.87,2.04 0.52,2.12 0.18,2.21 -0.17,2.18 -0.53,2.15 -0.86,2.01 -1.19,1.87 -1.46,1.63 -1.73,1.39 -1.90,1.07 -2.08,0.76 -2.15,0.41 -2.21,0.05 -2.17,-0.29 -2.12,-0.65 -1.96,-0.97 -1.80,-1.29 -1.54,-1.54 -1.29,-1.80 -0.97,-1.96 -0.65,-2.12 -0.29,-2.17 0.06,-2.21 0.41,-2.15 0.76,-2.08 1.07,-1.90 1.39,-1.73 1.63,-1.46 1.87,-1.19 2.01,-0.86 2.15,-0.53 2.18,-0.17 2.21,0.18 2.12,0.52 2.03,0.87 1.84,1.18 1.65,1.48 1.37,1.70 1.09,1.93 0.75,2.05 0.41,2.18 0.05,2.19 -0.30,2.20 -0.64,2.09 -0.98,1.98 -1.27,1.77 -1.57,1.56 -1.57,1.57 -1.57,1.57 -1.73,1.35 -1.90,1.14 -2.01,0.90 -2.12,0.66 -2.16,0.39 -2.21,0.13 -2.20,-0.13 -2.18,-0.40 -2.10,-0.65 -2.02,-0.91 -1.88,-1.14 -1.74,-1.36 -1.55,-1.55 -1.36,-1.74 -1.14,-1.88 -0.91,-2.02 -0.65,-2.10 -0.40,-2.18 -0.13,-2.20 0.13,-2.21 0.39,-2.16 0.66,-2.12 0.90,-2.01 1.14,-1.90 1.35,-1.73 1.57,-1.57 1.57,-1.57 L 1.57,-1.57 Z"></path></g><g transform="translate(1013 244.6875) rotate(0 69.875 12.5)"><text x="0" y="0" font-family="Virgil, Segoe UI Emoji" font-size="20px" fill="#1e1e1e" text-anchor="start" style="white-space: pre;" direction="ltr" dominant-baseline="text-before-edge">ucs_aprox.csv</text></g><g transform="translate(1014.9333343505859 286.3125) rotate(0 46.05833435058594 12.5)"><text x="0" y="0" font-family="Virgil, Segoe UI Emoji" font-size="20px" fill="#1e1e1e" text-anchor="start" style="white-space: pre;" direction="ltr" dominant-baseline="text-before-edge">figura.png</text></g><g stroke-linecap="round"><g transform="translate(217.29198514204472 279.4226465314223) rotate(0 56.67601078003645 -1.4226465314222878)"><path d="M-3.86 -0.51 C26.9 -2.16, 57.37 -2.06, 117.22 -4.06 M1.73 -1.43 C29.44 2.05, 59.9 2.2, 116.75 -1.62" stroke="#1e1e1e" stroke-width="4" fill="none"></path></g><g transform="translate(217.29198514204472 279.4226465314223) rotate(0 56.67601078003645 -1.4226465314222878)"><path d="M85.29 9.61 C93.16 4.35, 100.56 1.97, 115.97 -3.68 M90.88 8.69 C95.27 8.49, 102.27 6.12, 115.51 -1.25" stroke="#1e1e1e" stroke-width="4" fill="none"></path></g><g transform="translate(217.29198514204472 279.4226465314223) rotate(0 56.67601078003645 -1.4226465314222878)"><path d="M84.19 -10.88 C91.97 -10.9, 99.65 -8.05, 115.97 -3.68 M89.78 -11.8 C94.19 -6.67, 101.48 -3.73, 115.51 -1.25" stroke="#1e1e1e" stroke-width="4" fill="none"></path></g></g><mask></mask><g stroke-linecap="round"><g transform="translate(884.6601049238816 278.76275089010596) rotate(0 57.69122229702771 -0.7627508901059628)"><path d="M-0.76 1.38 C33.02 1.51, 70.17 -0.47, 114.45 1.29 M-0.53 1.87 C27.91 1.23, 60.4 1.44, 116.14 -3.4" stroke="#1e1e1e" stroke-width="4" fill="none"></path></g><g transform="translate(884.6601049238816 278.76275089010596) rotate(0 57.69122229702771 -0.7627508901059628)"><path d="M87.99 10.21 C94.51 7.67, 104.22 2.58, 112.6 -0.11 M88.22 10.7 C94.06 6.91, 103.87 4.57, 114.29 -4.8" stroke="#1e1e1e" stroke-width="4" fill="none"></path></g><g transform="translate(884.6601049238816 278.76275089010596) rotate(0 57.69122229702771 -0.7627508901059628)"><path d="M86.54 -10.26 C93.11 -6.61, 103.26 -5.49, 112.6 -0.11 M86.77 -9.77 C92.82 -8.43, 103 -5.65, 114.29 -4.8" stroke="#1e1e1e" stroke-width="4" fill="none"></path></g></g><mask></mask><g stroke-linecap="round" transform="translate(680.7026544418186 491.5) rotate(0 76 17.5)"><path d="M9.23 2.77 L146.27 0.07 L155 5.11 L148.83 32.19 L147.65 35.15 L146.11 38.68 L6.44 31.77 L-0.3 30.78 L1.45 8.69 L1.09 4.68 L5.33 3.33" stroke="none" stroke-width="0" fill="#eaddd7"></path><path d="M8.75 0 M8.75 0 C65.25 -3.22, 117.58 2.69, 143.25 0 M8.75 0 C60.1 -0.52, 115.73 -2.66, 143.25 0 M143.25 0 C145.51 -1.44, 154.53 1.81, 152 8.75 M143.25 0 C146.68 -2.38, 151.31 5.53, 152 8.75 M152 8.75 C148.8 16.39, 152.81 23.15, 152 26.25 M152 8.75 C151.57 13.66, 153.43 15.95, 152 26.25 M152 26.25 C151.11 29.4, 145.18 37.01, 143.25 35 M152 26.25 C152.84 29.42, 150.66 33.58, 143.25 35 M143.25 35 C114.03 36.14, 83.36 31.13, 8.75 35 M143.25 35 C98.04 34.49, 54.11 32.77, 8.75 35 M8.75 35 C0.84 36.9, 1.95 29.59, 0 26.25 M8.75 35 C0.04 39.57, 0.25 31.92, 0 26.25 M0 26.25 C0.16 20.47, 2.94 9.56, 0 8.75 M0 26.25 C-1.66 22.8, 0.6 19.11, 0 8.75 M0 8.75 C0.26 -0.46, 5.23 3.25, 8.75 0 M0 8.75 C-1.69 6.36, 2.43 -1.44, 8.75 0" stroke="#1e1e1e" stroke-width="1" fill="none"></path></g><g transform="translate(718.3859887924045 496.5) rotate(0 38.31666564941406 12.5)"><text x="38.31666564941406" y="0" font-family="Virgil, Segoe UI Emoji" font-size="20px" fill="#1e1e1e" text-anchor="middle" style="white-space: pre;" direction="ltr" dominant-baseline="text-before-edge">guardar</text></g><g stroke-linecap="round" transform="translate(676.7026544418186 93.5) rotate(0 76 17.5)"><path d="M11.38 -3.31 L146.15 -1.54 L155.09 1.3 L150.37 33.43 L145.38 37.67 L139.48 34.16 L3.38 37.38 L-3.18 30.67 L-3.2 7.06 L-0.63 -1.77 L7.66 1.33" stroke="none" stroke-width="0" fill="#eaddd7"></path><path d="M8.75 0 M8.75 0 C43.4 -0.92, 72.11 -2.35, 143.25 0 M8.75 0 C59.94 -1.91, 115.84 -1.61, 143.25 0 M143.25 0 C148.39 0.14, 155.08 6.83, 152 8.75 M143.25 0 C152.08 4.57, 155.7 1.35, 152 8.75 M152 8.75 C153.29 17.99, 148.71 18.63, 152 26.25 M152 8.75 C153.27 16.22, 152.48 19.78, 152 26.25 M152 26.25 C151.29 35.49, 145.82 32.02, 143.25 35 M152 26.25 C153.68 32.61, 152.39 37.93, 143.25 35 M143.25 35 C93.48 41.5, 42.85 34.74, 8.75 35 M143.25 35 C114.41 34.25, 86.7 32.95, 8.75 35 M8.75 35 C6.1 39, -1.72 35.42, 0 26.25 M8.75 35 C5.83 35.6, 1.97 30.56, 0 26.25 M0 26.25 C-0.86 18.28, -1.61 15.87, 0 8.75 M0 26.25 C-0.54 18.34, 1.37 12.66, 0 8.75 M0 8.75 C2.13 0.13, 1.56 3.97, 8.75 0 M0 8.75 C3.8 3.36, 5.78 4.13, 8.75 0" stroke="#1e1e1e" stroke-width="1" fill="none"></path></g><g transform="translate(718.8109880294651 98.5) rotate(0 33.891666412353516 12.5)"><text x="33.891666412353516" y="0" font-family="Virgil, Segoe UI Emoji" font-size="20px" fill="#1e1e1e" text-anchor="middle" style="white-space: pre;" direction="ltr" dominant-baseline="text-before-edge">archivo</text></g><g stroke-linecap="round" transform="translate(395.7026544418186 490) rotate(0 76 17.5)"><path d="M8.12 3.99 L146.77 -0.42 L152.37 1.02 L148.63 30.65 L143.22 30.6 L144.55 33.59 L7.12 31.95 L-2.8 32.11 L-2.91 7.43 L-1.12 -0.82 L8.47 3.33" stroke="none" stroke-width="0" fill="#eaddd7"></path><path d="M8.75 0 M8.75 0 C57.87 2.44, 113.91 -2.43, 143.25 0 M8.75 0 C46.51 -0.68, 85.86 -1.97, 143.25 0 M143.25 0 C149.15 -3.24, 151.23 6.71, 152 8.75 M143.25 0 C152.98 -3.79, 150.74 1.06, 152 8.75 M152 8.75 C150.85 12.72, 154.65 18.35, 152 26.25 M152 8.75 C152.27 12.31, 152.75 19.7, 152 26.25 M152 26.25 C148.16 28.65, 150.55 36.42, 143.25 35 M152 26.25 C154.25 28.49, 151.78 32.83, 143.25 35 M143.25 35 C97.37 37.85, 46.84 34.76, 8.75 35 M143.25 35 C94.38 38.69, 47.26 35.1, 8.75 35 M8.75 35 C6.8 32.95, -3.47 31.98, 0 26.25 M8.75 35 C0.24 33.77, 3.02 34.67, 0 26.25 M0 26.25 C1.51 21.98, -2.62 19.37, 0 8.75 M0 26.25 C-1.21 21.7, -0.16 18.17, 0 8.75 M0 8.75 C-2.86 3.26, 1.28 -3.76, 8.75 0 M0 8.75 C3.75 6.05, 5.22 3.17, 8.75 0" stroke="#1e1e1e" stroke-width="1" fill="none"></path></g><g transform="translate(433.085989555344 495) rotate(0 38.61666488647461 12.5)"><text x="38.61666488647461" y="0" font-family="Virgil, Segoe UI Emoji" font-size="20px" fill="#1e1e1e" text-anchor="middle" style="white-space: pre;" direction="ltr" dominant-baseline="text-before-edge">calcular</text></g><g stroke-linecap="round" transform="translate(397.7026544418186 151.5) rotate(0 122.5 17.5)"><path d="M0 0 C0 0, 0 0, 0 0 M0 0 C0 0, 0 0, 0 0 M-1.63 5.98 C0.2 5.78, 2.34 1.79, 3.76 0.95 M-0.97 6.28 C1.25 4.84, 3.18 1.52, 5.65 0.03 M-2.11 12.96 C4.57 6.32, 6.38 3.86, 9.55 1.43 M0.01 13.28 C5.02 10.01, 5.32 4.6, 9.64 -0.12 M-1.24 16.55 C6.13 9.48, 6.82 9.54, 16.02 3.12 M-0.25 18.11 C6.16 12.48, 10.29 4.51, 15.83 -1.12 M3.41 23.48 C3.31 21.23, 7.05 13.67, 21.68 -1.8 M-0.8 23.27 C7.99 15.44, 13.01 10.13, 22.67 1.82 M3.88 28.67 C3.88 24.1, 10.6 19.24, 28.86 -3.16 M-0.9 29.17 C5.93 22.07, 10.87 17.86, 24.86 1.06 M-0.23 31.48 C11.01 23.19, 21.83 9.9, 35.77 -2.96 M1.31 35.23 C11.31 22.56, 19.71 11.62, 33.18 -0.35 M6.24 39.69 C14.72 25.05, 25.49 7.71, 34.16 -0.28 M6.58 36.85 C12.66 25.07, 22.83 19.2, 37.37 -0.98 M10.77 37.81 C17.26 29.26, 30.81 16.62, 41.84 3.47 M12.35 34.57 C20.59 25.93, 27.66 17.43, 43.77 -1.46 M16.27 34.77 C25.99 22.46, 35.44 16.83, 44.71 3.33 M17 34.62 C30.53 22.84, 41.56 8.91, 46.43 -0.79 M20.26 32.65 C32.44 28.81, 40.09 12.06, 53.25 1.51 M20.18 34.59 C29.74 29.97, 36.42 19.82, 52.74 -0.77 M24.26 37.71 C33.76 29.33, 35.85 22.41, 60.49 -1.86 M29.29 35.26 C31.99 29.55, 42.11 19.02, 58.55 1.68 M34.99 39.43 C43.49 25.59, 53.98 10.56, 66.53 2.05 M33.84 36.56 C38.39 28.04, 46.1 22.17, 61.81 -1.94 M40.24 37.92 C43.85 27.17, 61.01 11.52, 68.55 -2.52 M38.44 33.84 C45.76 27.15, 54.85 17.94, 69.68 0.02 M46.87 34.75 C47.74 30.58, 57.06 22.9, 77.29 2.86 M41.9 37.59 C50.44 26.63, 62.06 15.58, 76.16 -1.1 M49.32 35.66 C54.95 22.09, 69.75 18.5, 83.09 -2.44 M46.87 36.99 C60.62 21.68, 69.05 10.18, 81.2 1.4 M51.6 33.32 C63.03 25.11, 71.64 20.23, 88.32 -3.4 M54.98 35.59 C63 28.49, 70.55 17.31, 84.38 1.19 M59.78 34.08 C66.86 25.23, 80.61 14.05, 89.44 1.46 M60.44 34.9 C63.71 25.67, 71.49 20.65, 91.95 -1.46 M64.01 32.72 C75.96 27.73, 85.63 15.17, 93.48 2.78 M65.16 34.04 C75.22 22.74, 84.89 11.66, 94.52 -0.06 M71 39.2 C81.28 30.15, 83.87 14.89, 100.05 3.14 M68.42 37.33 C80.51 24.81, 89.3 13.81, 102.17 1.73 M78.04 37.41 C86.87 28.45, 95.76 12.79, 109.8 -4.2 M73.95 33.96 C80.67 29.13, 86.43 18.46, 106.06 -2.29 M81.48 35.91 C89.25 25, 101.72 11.6, 114.48 3.44 M79.56 33.59 C90.66 26.13, 96.39 14.56, 109.57 -1.19 M82.76 34.72 C90.44 28.35, 102.37 19.22, 112.74 1.68 M84.29 33.96 C95.93 24.05, 106.63 11.86, 117.26 1.39 M88.86 35.99 C94.86 22.82, 102.95 17.46, 119.43 2.06 M90.01 36.56 C100.57 27.34, 109.3 16.08, 121.29 -0.81 M94.37 34.86 C108.87 17.65, 119.12 11.1, 126.88 -0.93 M96.57 34.21 C107.42 23.73, 118.73 13.25, 127.79 -0.83 M97.91 38.09 C116.17 24.46, 125.19 6.68, 128.73 -2.4 M103.4 34.69 C112.12 23.46, 123.19 10.62, 133.89 1.86 M108.19 38.92 C118.37 23.53, 129.72 4.9, 133.95 3.74 M108.62 36.41 C111.74 29.4, 120.36 21.6, 138.78 1.05 M112.5 35.73 C115.49 24.59, 125.73 24.16, 143.33 3.49 M110.74 35.98 C118.72 26.12, 123.91 20.98, 141.38 -0.66 M114.68 38.86 C122.09 25.3, 128.48 23.85, 147.46 1.58 M115.7 35.86 C127.11 24.59, 139.64 11.02, 147.46 -0.16 M119.64 33.3 C133.62 23.81, 145.36 6.75, 151.28 0.09 M122.53 36 C131.12 26.32, 138.47 18.8, 155.23 1.74 M131.39 33.5 C133.88 27.18, 143.91 18.87, 156.04 -2.64 M126.5 37.42 C134.44 27.04, 144.97 16.55, 158.5 -0.06 M137.48 38.07 C141.97 18.12, 156.73 10.69, 167.81 -1.39 M132.69 33.87 C146.81 23.08, 157.62 8.7, 164.3 0.71 M139.04 36.57 C148.56 27.04, 160.27 17.73, 171.46 -1.26 M139.16 35.48 C148.45 25.22, 159.65 10.8, 168 1.28 M142.61 36.95 C147.91 22.96, 161.34 11.62, 171.21 1.11 M141.91 37.05 C150.06 26.18, 158.2 15.75, 174.93 1.48 M145.44 36.63 C160.23 18.15, 172.22 8.61, 180.59 0.24 M149.26 34.02 C156.99 27.96, 167.82 14.35, 179.51 -0.64 M152.73 33.45 C167.96 19.65, 175.53 9.11, 182.95 0.57 M152.29 34.28 C161.57 28.3, 168.78 18.02, 186.87 -1.17 M161.53 37.16 C169.94 21.23, 184.53 12.11, 193.45 -0.75 M161.79 34.58 C169.88 22.22, 182.51 7.86, 192 1.26 M166.7 36.21 C169.8 28.87, 178.9 16.41, 195.59 -3.18 M163.41 36.14 C173.38 23.13, 185.09 15.72, 197.33 1.12 M169.4 32.48 C174.78 23.8, 183.29 21.55, 203.18 4.04 M171.22 36.26 C180.86 27, 188.44 15.63, 199.89 1.6 M175.15 32.02 C188.17 19.05, 195.02 14.42, 204.84 -3.44 M174.93 35.99 C183.89 23.72, 195.97 14.73, 208.93 -1.75 M178.24 31.81 C191.55 24.47, 191.6 23.23, 210.02 1.75 M181.43 35.72 C189.69 24.96, 199.22 11.57, 213.04 -1.42 M183.83 34.51 C194.55 25.28, 205.25 17.14, 217.5 -2.61 M185.97 34.79 C195.45 24.45, 205.83 13.83, 217.76 -2.3 M192.37 35.22 C199.6 24.38, 208.07 10.1, 221.37 -1.58 M189.74 35.17 C201.55 24.34, 213.96 8.6, 220.74 1.95 M197.64 36.22 C204.46 25.38, 212.17 16.91, 227.54 -4.25 M195.05 37.04 C202.66 25.39, 212.63 16.25, 229.32 0.51 M203.24 33.69 C214.77 28.43, 224.8 14.94, 235.74 2.94 M202.91 34.42 C212.61 19.24, 225.03 7.79, 231.71 1.03 M204.58 32.52 C216.01 21.81, 226.38 14.89, 239.37 3.74 M208.17 34.81 C217.3 25.42, 226.94 15.84, 237.91 2.02 M213.42 33.03 C219.42 22.76, 231.84 10.58, 242.76 3.07 M213.15 34.81 C221.97 28.07, 228.12 17.78, 242.13 0.7 M215.8 37.71 C227.45 21.82, 234.84 9.37, 245.18 -0.43 M218.74 35.73 C226.82 28.91, 232.01 20.82, 247.91 2.4 M220.6 37.96 C232.99 26.71, 240.62 11.32, 247.98 5.78 M222.07 35.24 C227.65 29.39, 234.95 25.14, 248.39 9.69 M225.54 36.91 C236.83 26.86, 241.55 22.79, 247.77 10.13 M227.61 34.98 C234.08 28.79, 242.7 17.67, 248.61 13.19 M233.62 36.07 C237.95 34.97, 239.16 26.23, 251.21 24.04 M232.77 36.19 C240.02 30.41, 244.24 27.03, 245.45 19.5 M241.61 34.79 C243.31 35.06, 241.67 31.55, 246.52 26.01 M239.14 35.49 C240.92 34.42, 241.54 31.84, 247.54 27.38" stroke="#868e96" stroke-width="0.5" fill="none"></path><path d="M3.24 -3.21 C70.84 -0.73, 136.81 -2.26, 244.9 2.31 M0.49 1.41 C66.53 -0.48, 129.9 2.62, 246 -1.14 M246.13 -1.27 C245.95 4.89, 245.15 14.39, 248.08 34.72 M243.16 1.19 C243.75 11.15, 246.08 22.61, 245.7 36.19 M242.5 32.96 C171.73 34.17, 98.79 36.88, 2.34 36.69 M244.97 35.47 C186.71 37.6, 129.73 35.6, -0.88 35.45 M-0.54 33.85 C-1.05 28.95, 2.3 15.2, 1.65 -1.22 M0.93 36.96 C1.26 26.91, 1.6 16.56, 0.74 -0.67" stroke="#1e1e1e" stroke-width="1" fill="none"></path></g><g transform="translate(402.7026544418186 156.5) rotate(0 97.80833435058594 12.5)"><text x="0" y="0" font-family="Virgil, Segoe UI Emoji" font-size="20px" fill="#1e1e1e" text-anchor="start" style="white-space: pre;" direction="ltr" dominant-baseline="text-before-edge"> modelo rebote-&gt;ucs</text></g><g stroke-linecap="round" transform="translate(614.904167175293 156.5) rotate(0 13 10.5)"><path d="M0.34 2.94 C0.34 2.94, 0.34 2.94, 0.34 2.94 M0.34 2.94 C0.34 2.94, 0.34 2.94, 0.34 2.94 M1.13 14.23 C5.48 8.82, 6.87 6.52, 9.65 4.42 M1.13 14.23 C2.92 10.61, 5.56 9.41, 9.65 4.42 M4.54 22.5 C12.11 17.31, 16.18 12.67, 20.29 4.38 M4.54 22.5 C10.92 15.98, 15.9 9.4, 20.29 4.38 M15.17 22.46 C17.17 13.96, 25.7 7.32, 29.6 5.86 M15.17 22.46 C20.58 19.37, 23.76 11.08, 29.6 5.86 M1.38 19.75 C1.38 19.75, 1.38 19.75, 1.38 19.75 M1.38 19.75 C1.38 19.75, 1.38 19.75, 1.38 19.75 M13.42 19.62 C9.29 15.69, 5.17 9.66, 0.59 8.46 M13.42 19.62 C8.93 15.34, 5.91 13.11, 0.59 8.46 M25.46 19.48 C18.27 16.73, 13.99 10.16, 2.82 -0.2 M25.46 19.48 C20.49 13.23, 12.11 7.85, 2.82 -0.2 M25.43 8.85 C23 2.13, 13.19 -0.9, 9.58 -4.92 M25.43 8.85 C20.09 3.86, 17.03 -0.24, 9.58 -4.92" stroke="#ffc9c9" stroke-width="1" fill="none"></path><path d="M5.25 0 M5.25 0 C9.83 3.03, 15.55 2.85, 20.75 0 M5.25 0 C10.89 1.45, 15.93 0.59, 20.75 0 M20.75 0 C21.04 -0.1, 27.18 1.46, 26 5.25 M20.75 0 C21.01 0.1, 21.88 -1.79, 26 5.25 M26 5.25 C24.13 9.78, 26.97 11.5, 26 15.75 M26 5.25 C25.64 7.81, 26.01 9.99, 26 15.75 M26 15.75 C24.11 22.8, 24.79 20.39, 20.75 21 M26 15.75 C29.67 22.54, 22.57 20.54, 20.75 21 M20.75 21 C17.99 22.48, 13.54 21.51, 5.25 21 M20.75 21 C16.77 19.86, 10.01 21.56, 5.25 21 M5.25 21 C5.35 21.62, -2.6 19.12, 0 15.75 M5.25 21 C4.8 16.47, -3.52 15.06, 0 15.75 M0 15.75 C-0.12 13.99, -1.88 12.2, 0 5.25 M0 15.75 C0.33 12.23, -0.25 7.98, 0 5.25 M0 5.25 C1.18 0.99, 3.98 0.38, 5.25 0 M0 5.25 C3.85 0.9, 5.7 0.41, 5.25 0" stroke="#1e1e1e" stroke-width="2" fill="none"></path></g><g stroke-linecap="round"><g transform="translate(627.904167175293 162.5) rotate(0 0 4.5)"><path d="M0 0 C0 1.5, 0 7.5, 0 9 M0 0 C0 1.5, 0 7.5, 0 9" stroke="#1e1e1e" stroke-width="4" fill="none"></path></g><g transform="translate(627.904167175293 162.5) rotate(0 0 4.5)"><path d="M-1.54 4.77 C-1.08 6.03, -0.62 7.29, 0 9 M-1.54 4.77 C-1.19 5.74, -0.83 6.71, 0 9" stroke="#1e1e1e" stroke-width="4" fill="none"></path></g><g transform="translate(627.904167175293 162.5) rotate(0 0 4.5)"><path d="M1.54 4.77 C1.08 6.03, 0.62 7.29, 0 9 M1.54 4.77 C1.19 5.74, 0.83 6.71, 0 9" stroke="#1e1e1e" stroke-width="4" fill="none"></path></g></g><mask></mask><g stroke-linecap="round" transform="translate(395.40416717529297 95) rotate(0 122.5 17.5)"><path d="M0 0 C0 0, 0 0, 0 0 M0 0 C0 0, 0 0, 0 0 M-1.63 7.36 C0.89 4.39, 3.01 3.56, 4.23 -1.12 M0.35 6.89 C0.99 4.56, 2.55 2.96, 5.16 0.79 M-2.16 14.68 C1 7.69, 1.55 9.42, 10.19 -1.69 M-0.51 11.61 C4.41 8.22, 7.98 5.34, 10.02 -0.96 M-2.71 17.44 C5.6 10.66, 8.5 4.35, 14.96 -0.3 M-0.77 19.82 C5.14 11.45, 9.35 7.48, 14.97 -0.51 M-3.17 21.55 C9.54 16.36, 13.86 7.13, 24.04 -0.51 M1.22 22.89 C6.95 15.47, 17.45 5.05, 19.84 1.44 M2.88 29.82 C5.54 17.21, 19.19 6.45, 24.91 3.69 M-0.35 29.38 C12.67 17.28, 20.43 6.47, 24.33 0.38 M3.65 36.58 C11.84 24.83, 15.08 12.33, 32.51 0.89 M2.5 35.86 C10.61 22.8, 20.69 14.07, 31.89 0.08 M6.66 34.59 C13.68 29.62, 20.02 19.09, 36.54 3.14 M6.38 34.29 C11.07 26.79, 17.8 21.45, 37.96 -1.18 M8.99 33.85 C24.24 22.72, 37.57 4.16, 39.52 3.17 M11.58 35.83 C19.74 25.79, 30.47 17.26, 40.79 -0.32 M13.84 31.81 C23.69 22.3, 38.11 11, 44.3 -0.32 M15.59 34.25 C24.55 28.5, 28.17 22.21, 45.89 0.99 M23.31 32.59 C27.53 28.73, 44.51 16.66, 51.98 2.53 M22.74 34.28 C27.6 27.75, 36.5 18.6, 52.85 -1.36 M29.21 36.49 C30.91 27.11, 42.72 22.26, 57.52 2.07 M27.78 34.2 C34.39 28.55, 39.35 22.19, 59.74 0.49 M35.77 37.53 C39.4 29.57, 48.16 22.44, 63.65 -1.71 M31.64 36.55 C44.17 23.22, 52.27 14.09, 61.96 0.76 M41.05 37.43 C48.43 25.63, 60.16 8.41, 68.42 2.19 M39.57 35.2 C49.99 22.64, 59.84 10.85, 68.65 -1.63 M40.41 38.83 C50.84 21.18, 68.56 7.98, 71.18 0.9 M41.55 37.71 C50.77 29.16, 55.63 23.01, 73.54 -0.68 M48.51 34.58 C57.16 29.53, 68.12 15.81, 76.08 -0.95 M47.15 35.75 C56.3 24.81, 67.4 12.73, 79.35 -0.9 M54.82 32.99 C58.09 28.98, 68.8 15.27, 82.09 -0.07 M53.93 35.47 C65.58 20.23, 79.45 8.64, 84.62 1.01 M61.61 39.02 C64.15 29.67, 69.56 18.87, 86.47 -1.21 M58.28 35.82 C67.98 24.9, 76.23 14.33, 88.13 -1.41 M63.46 39.64 C73.07 18.58, 86.53 11.07, 98.78 -3.92 M63.82 35 C73.78 23.87, 85.19 14.25, 95.75 -2.04 M69.24 32.95 C76.45 30.05, 85.44 20.55, 104.4 -1.33 M68.27 36.78 C78.61 26.75, 87.32 17.78, 100.83 0.21 M73.66 37.54 C85.66 22.98, 99.4 15.32, 102.51 1.16 M75.82 36.91 C86.86 24, 97.26 10.41, 107.07 -0.25 M79.18 33.68 C85.58 27.79, 97.49 17.24, 109.6 3.07 M80.01 37.46 C88.97 24.5, 97.09 14.98, 112.87 -1.26 M83.62 36.59 C95.17 22.13, 100.56 18.16, 116.78 -1.11 M84.1 37.24 C97.48 24.6, 107.19 12.74, 117.61 2.15 M94.08 37.67 C99.13 28.19, 101.89 22.76, 120.64 -0.49 M91.94 34.12 C98.32 28.44, 106.48 20.51, 121.23 0.42 M98.44 37.79 C102.69 27.46, 114.49 12.61, 129.93 -2.18 M96.36 35.47 C102.78 29.96, 111.2 20.09, 127.94 0.09 M103.44 36.48 C111.18 21.03, 125.89 5.53, 130.99 -1.39 M102.05 36.46 C107.33 28.36, 116.21 16.82, 132.43 -1.09 M106.08 33.27 C115.46 23.77, 126.6 10.49, 139.19 3.9 M105.91 34.51 C115.74 26.61, 126.05 15.21, 136.22 0.22 M115.68 32.82 C123.21 25.87, 129.87 17.36, 140.97 2.14 M111.93 35.61 C118.38 26.55, 124.62 16.49, 142.57 -0.68 M117.36 38.29 C128.1 25.49, 137.16 17.8, 145.33 1.47 M115.58 36.73 C129.92 22.52, 139.97 10.27, 148.83 1.85 M126.06 32.5 C135.99 25.45, 144.63 14.11, 157.81 2.98 M122.69 36.15 C132.4 25.72, 138.96 16.86, 153.32 -1.82 M126 35.24 C143.05 24.91, 147.82 8.07, 160 1.96 M129.8 35.9 C137.83 22.7, 149.59 11.35, 159.71 1.76 M132.72 36.48 C140.8 29.86, 149.16 16.55, 163.57 1.14 M135.04 36.08 C142.24 23.8, 152.46 13.07, 163.9 -0.52 M140.57 37.64 C151.73 19.3, 162.3 11.68, 165.73 3.95 M138.53 37.27 C146.31 26.8, 152.84 21.18, 170.37 2.12 M144.04 33.57 C160.28 24.85, 170.99 8.79, 171.23 3.75 M144.57 35.62 C151.87 25.89, 159.7 17.75, 175.1 -1.36 M152.55 34.1 C155.22 25.34, 165.36 19.21, 179.9 1.13 M149.31 37.49 C159.33 22.86, 168.4 12.67, 181.88 -1.4 M157.23 37.48 C169.57 26.4, 179.13 11.71, 184.62 1.09 M152.4 34.13 C164.4 25.46, 172.23 16.87, 185.26 -1.49 M160.26 36.4 C168.65 24.95, 179.42 17.07, 190.8 -1.67 M159.24 36.68 C169.84 24.06, 180.44 15.19, 190.86 0.24 M162.39 35.27 C175.35 27.45, 185.64 9.22, 198.43 -1.48 M165.28 34.69 C172.81 28.43, 178.09 18.78, 198.3 1.37 M168.91 39.41 C181.89 25.66, 184.7 20.21, 197.56 3.5 M170.97 34.38 C179.92 27.05, 189.85 15.34, 201.51 1.57 M177.18 32.39 C185.13 21.53, 195.41 18.49, 206.27 0.56 M174.12 37.07 C185.03 22.53, 196.34 13.22, 207.68 0.97 M182.59 37.16 C184.7 25.79, 194.74 24.08, 210.21 3.7 M180.74 33.56 C187.15 30.5, 195.99 19.81, 213.58 -1.46 M182.11 37.41 C196.31 25.13, 201.64 16.79, 216.58 2.85 M185.45 34.47 C192.75 24.45, 201.46 16.8, 216.46 -1.53 M188.25 38.76 C200.11 26.75, 209.86 8.91, 225.64 -2.86 M190.33 36.64 C204.31 19.97, 214.89 6.97, 222.4 0.53 M200.58 38.04 C205.16 26.41, 220.61 9.5, 228.7 0.14 M197.33 37.51 C204.96 27.9, 210.1 16.07, 229.22 -1.54 M203.73 36.49 C215.07 24.79, 225.31 8.7, 235.63 1.14 M203.09 33.47 C212.92 24.3, 219.81 13.88, 234.83 -1.64 M210.87 33.09 C209.63 29.59, 222.31 18.6, 240.19 3.08 M207.38 34.28 C219.39 21.88, 229.35 11.77, 239.46 1.76 M213.74 37.72 C219.25 20.48, 232.53 11.48, 242.82 -3.86 M211.93 37.36 C225.64 21.63, 235.08 10.4, 245.32 0.3 M218.12 32.51 C227.59 24.55, 231.66 14.42, 248.13 4.68 M216.81 34.27 C228.61 21.41, 241.02 8.31, 246.92 -0.16 M225.86 32.97 C230.62 30.58, 234.54 21.69, 245.52 6.01 M223.32 37.02 C228.67 30.28, 233.36 23.93, 248.66 8.34 M230.35 33.37 C234.26 27.32, 240.32 26.93, 247.94 14.87 M230.36 36.45 C233.57 26.54, 243.1 18.49, 248.35 13.42 M230.55 35.88 C237.19 35.94, 238.84 29.69, 248.06 20.94 M233.3 36.63 C240.11 32.09, 242.51 26.25, 246.36 21.09 M241.17 35.82 C244.02 32.23, 242.3 29.79, 249.44 24.53 M239.91 36.61 C241.72 33.35, 245.38 28.89, 247.13 26.9" stroke="#868e96" stroke-width="0.5" fill="none"></path><path d="M0.59 0.76 C93.38 -2.24, 194.26 -3.63, 244.62 -3.25 M1.25 -0.69 C82.39 4.03, 167.69 3.48, 244.72 -0.8 M245.62 -1.8 C241.73 13.68, 247.25 22.88, 246.96 37.54 M244.27 1.26 C243.67 9.24, 245.98 14.85, 244.88 34.64 M241.78 34.35 C177.16 35.16, 105.61 36.32, -1.09 32.89 M244 35.84 C187.01 34.2, 126.61 32.51, 1.35 35.79 M-0.38 36.19 C1.21 23.29, -2.15 9.03, -1.73 -1.24 M-0.23 34.17 C-0.78 25.3, 0.57 18.31, -1.62 -1.48" stroke="#1e1e1e" stroke-width="1" fill="none"></path></g><g transform="translate(494.7958335876465 100) rotate(0 23.108333587646484 12.5)"><text x="23.108333587646484" y="0" font-family="Virgil, Segoe UI Emoji" font-size="20px" fill="#1e1e1e" text-anchor="middle" style="white-space: pre;" direction="ltr" dominant-baseline="text-before-edge">modo</text></g><g stroke-linecap="round" transform="translate(612.6056799087673 100) rotate(0 13 10.5)"><path d="M0.34 2.94 C0.34 2.94, 0.34 2.94, 0.34 2.94 M0.34 2.94 C0.34 2.94, 0.34 2.94, 0.34 2.94 M1.13 14.23 C2.33 12.61, 5.56 9.1, 9.65 4.42 M1.13 14.23 C4.4 12.05, 6.13 8.81, 9.65 4.42 M4.54 22.5 C13.9 14.31, 18.79 5.81, 20.29 4.38 M4.54 22.5 C10.17 15.51, 15.91 7.65, 20.29 4.38 M15.17 22.46 C23.6 14.9, 27.2 10.61, 29.6 5.86 M15.17 22.46 C19.49 17.4, 21.88 14.79, 29.6 5.86 M1.38 19.75 C1.38 19.75, 1.38 19.75, 1.38 19.75 M1.38 19.75 C1.38 19.75, 1.38 19.75, 1.38 19.75 M13.42 19.62 C9.28 19.22, 8.34 14.36, 0.59 8.46 M13.42 19.62 C10.99 17.7, 5.46 12.5, 0.59 8.46 M25.46 19.48 C16.11 15.9, 11.63 10.3, 2.82 -0.2 M25.46 19.48 C19.88 14.42, 14.47 8.76, 2.82 -0.2 M25.43 8.85 C18.59 7.35, 17.66 0.29, 9.58 -4.92 M25.43 8.85 C18.56 2.24, 16.29 -0.71, 9.58 -4.92" stroke="#ffc9c9" stroke-width="1" fill="none"></path><path d="M5.25 0 M5.25 0 C7.59 -2.79, 12.81 1.09, 20.75 0 M5.25 0 C8.99 -0.3, 13.24 0.07, 20.75 0 M20.75 0 C25.1 2.14, 22.42 3.67, 26 5.25 M20.75 0 C23.23 -3.3, 29.79 -0.02, 26 5.25 M26 5.25 C25.52 6.71, 26.07 8.53, 26 15.75 M26 5.25 C26.44 8.05, 26.62 11.5, 26 15.75 M26 15.75 C24.48 16.94, 27.85 21.85, 20.75 21 M26 15.75 C24.15 16.28, 23.11 20.61, 20.75 21 M20.75 21 C15.92 20.51, 12.96 19.81, 5.25 21 M20.75 21 C16.95 20.26, 12.44 21.79, 5.25 21 M5.25 21 C0.46 19.33, -0.74 17.58, 0 15.75 M5.25 21 C4.38 17.05, -2.91 22.89, 0 15.75 M0 15.75 C1.37 12.55, 1.79 11.29, 0 5.25 M0 15.75 C-0.7 12.85, 0.52 8.95, 0 5.25 M0 5.25 C-2.85 4.77, 3.85 -1.4, 5.25 0 M0 5.25 C2.12 5.06, 1 -4.52, 5.25 0" stroke="#1e1e1e" stroke-width="2" fill="none"></path></g><g stroke-linecap="round"><g transform="translate(625.6056799087673 106) rotate(0 0 4.5)"><path d="M0 0 C0 1.5, 0 7.5, 0 9 M0 0 C0 1.5, 0 7.5, 0 9" stroke="#1e1e1e" stroke-width="4" fill="none"></path></g><g transform="translate(625.6056799087673 106) rotate(0 0 4.5)"><path d="M-1.54 4.77 C-1.06 6.08, -0.59 7.38, 0 9 M-1.54 4.77 C-1 6.26, -0.46 7.74, 0 9" stroke="#1e1e1e" stroke-width="4" fill="none"></path></g><g transform="translate(625.6056799087673 106) rotate(0 0 4.5)"><path d="M1.54 4.77 C1.06 6.08, 0.59 7.38, 0 9 M1.54 4.77 C1 6.26, 0.46 7.74, 0 9" stroke="#1e1e1e" stroke-width="4" fill="none"></path></g></g><mask></mask><g stroke-linecap="round" transform="translate(665.7026544418186 152) rotate(0 83.5 17.5)"><path d="M-0.72 3.44 L164.32 0.84 L168.98 36.96 L0.76 32.45" stroke="none" stroke-width="0" fill="#e9ecef"></path><path d="M-0.84 0.03 C47.67 3.09, 90.8 2.66, 170.78 -2.83 M0.77 -1.75 C56.08 3.64, 109.14 3.31, 165.65 0.66 M163.06 3.08 C164.55 15.94, 169.56 26.84, 170.49 39 M166.37 -0.28 C167.51 15.07, 166.06 26.87, 166.67 34.51 M167.6 33.04 C130.6 36.75, 97.08 30.51, -2.24 36.21 M166.52 36.84 C109.91 37.14, 51.83 37.98, 0.6 35.92 M-2.84 34.12 C1.37 21.15, 3.91 8.01, -0.01 -0.86 M-0.69 36.44 C0.63 22.27, -0.52 11, 0.23 -0.54" stroke="#1e1e1e" stroke-width="1" fill="none"></path></g><g transform="translate(697.2276559676975 157) rotate(0 51.974998474121094 12.5)"><text x="51.974998474121094" y="0" font-family="Virgil, Segoe UI Emoji" font-size="20px" fill="#1e1e1e" text-anchor="middle" style="white-space: pre;" direction="ltr" dominant-baseline="text-before-edge">información</text></g><g stroke-linecap="round" transform="translate(793.904167175293 20.5) rotate(0 6 6)"><path d="M12 6 C12 6.35, 11.97 6.7, 11.91 7.04 C11.85 7.38, 11.76 7.73, 11.64 8.05 C11.52 8.38, 11.37 8.7, 11.2 9 C11.02 9.3, 10.82 9.59, 10.6 9.86 C10.37 10.12, 10.12 10.37, 9.86 10.6 C9.59 10.82, 9.3 11.02, 9 11.2 C8.7 11.37, 8.38 11.52, 8.05 11.64 C7.73 11.76, 7.38 11.85, 7.04 11.91 C6.7 11.97, 6.35 12, 6 12 C5.65 12, 5.3 11.97, 4.96 11.91 C4.62 11.85, 4.27 11.76, 3.95 11.64 C3.62 11.52, 3.3 11.37, 3 11.2 C2.7 11.02, 2.41 10.82, 2.14 10.6 C1.88 10.37, 1.63 10.12, 1.4 9.86 C1.18 9.59, 0.98 9.3, 0.8 9 C0.63 8.7, 0.48 8.38, 0.36 8.05 C0.24 7.73, 0.15 7.38, 0.09 7.04 C0.03 6.7, 0 6.35, 0 6 C0 5.65, 0.03 5.3, 0.09 4.96 C0.15 4.62, 0.24 4.27, 0.36 3.95 C0.48 3.62, 0.63 3.3, 0.8 3 C0.98 2.7, 1.18 2.41, 1.4 2.14 C1.63 1.88, 1.88 1.63, 2.14 1.4 C2.41 1.18, 2.7 0.98, 3 0.8 C3.3 0.63, 3.62 0.48, 3.95 0.36 C4.27 0.24, 4.62 0.15, 4.96 0.09 C5.3 0.03, 5.65 0, 6 0 C6.35 0, 6.7 0.03, 7.04 0.09 C7.38 0.15, 7.73 0.24, 8.05 0.36 C8.38 0.48, 8.7 0.63, 9 0.8 C9.3 0.98, 9.59 1.18, 9.86 1.4 C10.12 1.63, 10.37 1.88, 10.6 2.14 C10.82 2.41, 11.02 2.7, 11.2 3 C11.37 3.3, 11.52 3.62, 11.64 3.95 C11.76 4.27, 11.85 4.62, 11.91 4.96 C11.97 5.3, 11.98 5.83, 12 6 C12.02 6.17, 12.02 5.83, 12 6" stroke="none" stroke-width="0" fill="#2f9e44"></path><path d="M12 6 C12 6.35, 11.97 6.7, 11.91 7.04 C11.85 7.38, 11.76 7.73, 11.64 8.05 C11.52 8.38, 11.37 8.7, 11.2 9 C11.02 9.3, 10.82 9.59, 10.6 9.86 C10.37 10.12, 10.12 10.37, 9.86 10.6 C9.59 10.82, 9.3 11.02, 9 11.2 C8.7 11.37, 8.38 11.52, 8.05 11.64 C7.73 11.76, 7.38 11.85, 7.04 11.91 C6.7 11.97, 6.35 12, 6 12 C5.65 12, 5.3 11.97, 4.96 11.91 C4.62 11.85, 4.27 11.76, 3.95 11.64 C3.62 11.52, 3.3 11.37, 3 11.2 C2.7 11.02, 2.41 10.82, 2.14 10.6 C1.88 10.37, 1.63 10.12, 1.4 9.86 C1.18 9.59, 0.98 9.3, 0.8 9 C0.63 8.7, 0.48 8.38, 0.36 8.05 C0.24 7.73, 0.15 7.38, 0.09 7.04 C0.03 6.7, 0 6.35, 0 6 C0 5.65, 0.03 5.3, 0.09 4.96 C0.15 4.62, 0.24 4.27, 0.36 3.95 C0.48 3.62, 0.63 3.3, 0.8 3 C0.98 2.7, 1.18 2.41, 1.4 2.14 C1.63 1.88, 1.88 1.63, 2.14 1.4 C2.41 1.18, 2.7 0.98, 3 0.8 C3.3 0.63, 3.62 0.48, 3.95 0.36 C4.27 0.24, 4.62 0.15, 4.96 0.09 C5.3 0.03, 5.65 0, 6 0 C6.35 0, 6.7 0.03, 7.04 0.09 C7.38 0.15, 7.73 0.24, 8.05 0.36 C8.38 0.48, 8.7 0.63, 9 0.8 C9.3 0.98, 9.59 1.18, 9.86 1.4 C10.12 1.63, 10.37 1.88, 10.6 2.14 C10.82 2.41, 11.02 2.7, 11.2 3 C11.37 3.3, 11.52 3.62, 11.64 3.95 C11.76 4.27, 11.85 4.62, 11.91 4.96 C11.97 5.3, 11.98 5.83, 12 6 C12.02 6.17, 12.02 5.83, 12 6" stroke="#1e1e1e" stroke-width="1" fill="none"></path></g><g stroke-linecap="round" transform="translate(813.904167175293 20.5) rotate(0 6 6)"><path d="M12 6 C12 6.35, 11.97 6.7, 11.91 7.04 C11.85 7.38, 11.76 7.73, 11.64 8.05 C11.52 8.38, 11.37 8.7, 11.2 9 C11.02 9.3, 10.82 9.59, 10.6 9.86 C10.37 10.12, 10.12 10.37, 9.86 10.6 C9.59 10.82, 9.3 11.02, 9 11.2 C8.7 11.37, 8.38 11.52, 8.05 11.64 C7.73 11.76, 7.38 11.85, 7.04 11.91 C6.7 11.97, 6.35 12, 6 12 C5.65 12, 5.3 11.97, 4.96 11.91 C4.62 11.85, 4.27 11.76, 3.95 11.64 C3.62 11.52, 3.3 11.37, 3 11.2 C2.7 11.02, 2.41 10.82, 2.14 10.6 C1.88 10.37, 1.63 10.12, 1.4 9.86 C1.18 9.59, 0.98 9.3, 0.8 9 C0.63 8.7, 0.48 8.38, 0.36 8.05 C0.24 7.73, 0.15 7.38, 0.09 7.04 C0.03 6.7, 0 6.35, 0 6 C0 5.65, 0.03 5.3, 0.09 4.96 C0.15 4.62, 0.24 4.27, 0.36 3.95 C0.48 3.62, 0.63 3.3, 0.8 3 C0.98 2.7, 1.18 2.41, 1.4 2.14 C1.63 1.88, 1.88 1.63, 2.14 1.4 C2.41 1.18, 2.7 0.98, 3 0.8 C3.3 0.63, 3.62 0.48, 3.95 0.36 C4.27 0.24, 4.62 0.15, 4.96 0.09 C5.3 0.03, 5.65 0, 6 0 C6.35 0, 6.7 0.03, 7.04 0.09 C7.38 0.15, 7.73 0.24, 8.05 0.36 C8.38 0.48, 8.7 0.63, 9 0.8 C9.3 0.98, 9.59 1.18, 9.86 1.4 C10.12 1.63, 10.37 1.88, 10.6 2.14 C10.82 2.41, 11.02 2.7, 11.2 3 C11.37 3.3, 11.52 3.62, 11.64 3.95 C11.76 4.27, 11.85 4.62, 11.91 4.96 C11.97 5.3, 11.98 5.83, 12 6 C12.02 6.17, 12.02 5.83, 12 6" stroke="none" stroke-width="0" fill="#1971c2"></path><path d="M12 6 C12 6.35, 11.97 6.7, 11.91 7.04 C11.85 7.38, 11.76 7.73, 11.64 8.05 C11.52 8.38, 11.37 8.7, 11.2 9 C11.02 9.3, 10.82 9.59, 10.6 9.86 C10.37 10.12, 10.12 10.37, 9.86 10.6 C9.59 10.82, 9.3 11.02, 9 11.2 C8.7 11.37, 8.38 11.52, 8.05 11.64 C7.73 11.76, 7.38 11.85, 7.04 11.91 C6.7 11.97, 6.35 12, 6 12 C5.65 12, 5.3 11.97, 4.96 11.91 C4.62 11.85, 4.27 11.76, 3.95 11.64 C3.62 11.52, 3.3 11.37, 3 11.2 C2.7 11.02, 2.41 10.82, 2.14 10.6 C1.88 10.37, 1.63 10.12, 1.4 9.86 C1.18 9.59, 0.98 9.3, 0.8 9 C0.63 8.7, 0.48 8.38, 0.36 8.05 C0.24 7.73, 0.15 7.38, 0.09 7.04 C0.03 6.7, 0 6.35, 0 6 C0 5.65, 0.03 5.3, 0.09 4.96 C0.15 4.62, 0.24 4.27, 0.36 3.95 C0.48 3.62, 0.63 3.3, 0.8 3 C0.98 2.7, 1.18 2.41, 1.4 2.14 C1.63 1.88, 1.88 1.63, 2.14 1.4 C2.41 1.18, 2.7 0.98, 3 0.8 C3.3 0.63, 3.62 0.48, 3.95 0.36 C4.27 0.24, 4.62 0.15, 4.96 0.09 C5.3 0.03, 5.65 0, 6 0 C6.35 0, 6.7 0.03, 7.04 0.09 C7.38 0.15, 7.73 0.24, 8.05 0.36 C8.38 0.48, 8.7 0.63, 9 0.8 C9.3 0.98, 9.59 1.18, 9.86 1.4 C10.12 1.63, 10.37 1.88, 10.6 2.14 C10.82 2.41, 11.02 2.7, 11.2 3 C11.37 3.3, 11.52 3.62, 11.64 3.95 C11.76 4.27, 11.85 4.62, 11.91 4.96 C11.97 5.3, 11.98 5.83, 12 6 C12.02 6.17, 12.02 5.83, 12 6" stroke="#1e1e1e" stroke-width="1" fill="none"></path></g><g stroke-linecap="round" transform="translate(833.904167175293 20.5) rotate(0 6 6)"><path d="M12 6 C12 6.35, 11.97 6.7, 11.91 7.04 C11.85 7.38, 11.76 7.73, 11.64 8.05 C11.52 8.38, 11.37 8.7, 11.2 9 C11.02 9.3, 10.82 9.59, 10.6 9.86 C10.37 10.12, 10.12 10.37, 9.86 10.6 C9.59 10.82, 9.3 11.02, 9 11.2 C8.7 11.37, 8.38 11.52, 8.05 11.64 C7.73 11.76, 7.38 11.85, 7.04 11.91 C6.7 11.97, 6.35 12, 6 12 C5.65 12, 5.3 11.97, 4.96 11.91 C4.62 11.85, 4.27 11.76, 3.95 11.64 C3.62 11.52, 3.3 11.37, 3 11.2 C2.7 11.02, 2.41 10.82, 2.14 10.6 C1.88 10.37, 1.63 10.12, 1.4 9.86 C1.18 9.59, 0.98 9.3, 0.8 9 C0.63 8.7, 0.48 8.38, 0.36 8.05 C0.24 7.73, 0.15 7.38, 0.09 7.04 C0.03 6.7, 0 6.35, 0 6 C0 5.65, 0.03 5.3, 0.09 4.96 C0.15 4.62, 0.24 4.27, 0.36 3.95 C0.48 3.62, 0.63 3.3, 0.8 3 C0.98 2.7, 1.18 2.41, 1.4 2.14 C1.63 1.88, 1.88 1.63, 2.14 1.4 C2.41 1.18, 2.7 0.98, 3 0.8 C3.3 0.63, 3.62 0.48, 3.95 0.36 C4.27 0.24, 4.62 0.15, 4.96 0.09 C5.3 0.03, 5.65 0, 6 0 C6.35 0, 6.7 0.03, 7.04 0.09 C7.38 0.15, 7.73 0.24, 8.05 0.36 C8.38 0.48, 8.7 0.63, 9 0.8 C9.3 0.98, 9.59 1.18, 9.86 1.4 C10.12 1.63, 10.37 1.88, 10.6 2.14 C10.82 2.41, 11.02 2.7, 11.2 3 C11.37 3.3, 11.52 3.62, 11.64 3.95 C11.76 4.27, 11.85 4.62, 11.91 4.96 C11.97 5.3, 11.98 5.83, 12 6 C12.02 6.17, 12.02 5.83, 12 6" stroke="none" stroke-width="0" fill="#e03131"></path><path d="M12 6 C12 6.35, 11.97 6.7, 11.91 7.04 C11.85 7.38, 11.76 7.73, 11.64 8.05 C11.52 8.38, 11.37 8.7, 11.2 9 C11.02 9.3, 10.82 9.59, 10.6 9.86 C10.37 10.12, 10.12 10.37, 9.86 10.6 C9.59 10.82, 9.3 11.02, 9 11.2 C8.7 11.37, 8.38 11.52, 8.05 11.64 C7.73 11.76, 7.38 11.85, 7.04 11.91 C6.7 11.97, 6.35 12, 6 12 C5.65 12, 5.3 11.97, 4.96 11.91 C4.62 11.85, 4.27 11.76, 3.95 11.64 C3.62 11.52, 3.3 11.37, 3 11.2 C2.7 11.02, 2.41 10.82, 2.14 10.6 C1.88 10.37, 1.63 10.12, 1.4 9.86 C1.18 9.59, 0.98 9.3, 0.8 9 C0.63 8.7, 0.48 8.38, 0.36 8.05 C0.24 7.73, 0.15 7.38, 0.09 7.04 C0.03 6.7, 0 6.35, 0 6 C0 5.65, 0.03 5.3, 0.09 4.96 C0.15 4.62, 0.24 4.27, 0.36 3.95 C0.48 3.62, 0.63 3.3, 0.8 3 C0.98 2.7, 1.18 2.41, 1.4 2.14 C1.63 1.88, 1.88 1.63, 2.14 1.4 C2.41 1.18, 2.7 0.98, 3 0.8 C3.3 0.63, 3.62 0.48, 3.95 0.36 C4.27 0.24, 4.62 0.15, 4.96 0.09 C5.3 0.03, 5.65 0, 6 0 C6.35 0, 6.7 0.03, 7.04 0.09 C7.38 0.15, 7.73 0.24, 8.05 0.36 C8.38 0.48, 8.7 0.63, 9 0.8 C9.3 0.98, 9.59 1.18, 9.86 1.4 C10.12 1.63, 10.37 1.88, 10.6 2.14 C10.82 2.41, 11.02 2.7, 11.2 3 C11.37 3.3, 11.52 3.62, 11.64 3.95 C11.76 4.27, 11.85 4.62, 11.91 4.96 C11.97 5.3, 11.98 5.83, 12 6 C12.02 6.17, 12.02 5.83, 12 6" stroke="#1e1e1e" stroke-width="1" fill="none"></path></g><g transform="translate(414.5208339691162 232.5) rotate(0 14.074999809265137 9.599999999999994)"><text x="14.074999809265137" y="0" font-family="Cascadia, Segoe UI Emoji" font-size="16px" fill="#1e1e1e" text-anchor="middle" style="white-space: pre;" direction="ltr" dominant-baseline="text-before-edge">ucs</text></g><g transform="translate(655.8375024795532 437.5) rotate(0 79.75833129882812 9.600000000000023)"><text x="79.75833129882812" y="0" font-family="Cascadia, Segoe UI Emoji" font-size="16px" fill="#1e1e1e" text-anchor="middle" style="white-space: pre;" direction="ltr" dominant-baseline="text-before-edge">número de rebotes</text></g><g transform="translate(640.7624969482422 223.29999999999995) rotate(0 89.14167022705078 19.19999999999999)"><text x="89.14167022705078" y="0" font-family="Cascadia, Segoe UI Emoji" font-size="16px" fill="#1e1e1e" text-anchor="middle" style="white-space: pre;" direction="ltr" dominant-baseline="text-before-edge">nombre_del_proyecto</text><text x="89.14167022705078" y="19.2" font-family="Cascadia, Segoe UI Emoji" font-size="16px" fill="#1e1e1e" text-anchor="middle" style="white-space: pre;" direction="ltr" dominant-baseline="text-before-edge">nombre_del_modelo</text></g><g stroke-linecap="round" transform="translate(458.90416717529297 272.5) rotate(0 44 24.5)"><path d="M0 0 C19.96 0, 39.91 0, 88 0 M0 0 C29.01 0, 58.02 0, 88 0 M88 0 C88 15.65, 88 31.3, 88 49 M88 0 C88 13.06, 88 26.13, 88 49 M88 49 C66.52 49, 45.05 49, 0 49 M88 49 C57.74 49, 27.48 49, 0 49 M0 49 C0 31.76, 0 14.53, 0 0 M0 49 C0 31.72, 0 14.45, 0 0" stroke="#1e1e1e" stroke-width="1" fill="none"></path></g><g transform="translate(470.0625 277.8) rotate(0 32.84166717529297 19.19999999999999)"><text x="32.84166717529297" y="0" font-family="Cascadia, Segoe UI Emoji" font-size="16px" fill="#1e1e1e" text-anchor="middle" style="white-space: pre;" direction="ltr" dominant-baseline="text-before-edge">y=mx+b</text><text x="32.84166717529297" y="19.2" font-family="Cascadia, Segoe UI Emoji" font-size="16px" fill="#1e1e1e" text-anchor="middle" style="white-space: pre;" direction="ltr" dominant-baseline="text-before-edge">R2=XXXX</text></g></svg>